<svg xmlns="http://www.w3.org/2000/svg" viewBox="0 0 646.45 154.75"><defs><style>.a{fill:#fff;}</style></defs><title>logo-white</title><path class="a" d="M227.55,53.34H214.7V41.65h12.85ZM214.7,59.12h12.85v48.46H214.7Z" transform="translate(-25.88 -32.99)"/><path class="a" d="M278.9,61.9q4.76,3.93,4.76,13v32.63h-13V78.11a13.55,13.55,0,0,0-1-5.87q-1.85-3.73-7.06-3.73-6.4,0-8.78,5.47a18.91,18.91,0,0,0-1.24,7.38v26.23H239.91V59.21h12.27v7.07a21.47,21.47,0,0,1,4.6-5.38A16,16,0,0,1,266.66,58Q274.14,58,278.9,61.9Z" transform="translate(-25.88 -32.99)"/><path class="a" d="M334.52,61.9q4.76,3.93,4.76,13v32.63h-13V78.11a13.54,13.54,0,0,0-1-5.87q-1.85-3.73-7.06-3.73-6.4,0-8.78,5.47a18.92,18.92,0,0,0-1.24,7.38v26.23H295.53V59.21H307.8v7.07a21.46,21.46,0,0,1,4.61-5.38A16,16,0,0,1,322.28,58Q329.76,58,334.52,61.9Z" transform="translate(-25.88 -32.99)"/><path class="a" d="M391.47,101.65q-6.14,7.57-18.63,7.57t-18.63-7.57a28.05,28.05,0,0,1-6.14-18.24,28.24,28.24,0,0,1,6.14-18.17q6.14-7.68,18.63-7.69t18.63,7.69a28.24,28.24,0,0,1,6.14,18.17A28.05,28.05,0,0,1,391.47,101.65Zm-10.14-7q3-4,3-11.23t-3-11.21a11.26,11.26,0,0,0-17.1,0q-3,3.93-3,11.21t3,11.23a11.22,11.22,0,0,0,17.1,0Z" transform="translate(-25.88 -32.99)"/><path class="a" d="M436.54,59.12h13.61l-17.5,48.46H419.28L401.9,59.12h14.23l10.09,35.75Z" transform="translate(-25.88 -32.99)"/><path class="a" d="M476.52,78.11A20,20,0,0,0,481.58,77q2.73-1.16,2.73-3.6a4.26,4.26,0,0,0-2.1-4.11,13.24,13.24,0,0,0-6.15-1.13q-4.55,0-6.44,2.22a9.17,9.17,0,0,0-1.8,4.45H455.59a18.54,18.54,0,0,1,3.57-10.45q5-6.4,17.33-6.4a30.9,30.9,0,0,1,14.2,3.16q6.21,3.16,6.21,11.92V95.27q0,2.31.09,5.6a7,7,0,0,0,.76,3.38,4.53,4.53,0,0,0,1.87,1.47v1.87H485.82a14,14,0,0,1-.8-2.76q-.22-1.29-.36-2.93a26.15,26.15,0,0,1-6.08,4.85,18.38,18.38,0,0,1-9.3,2.36,16.05,16.05,0,0,1-10.93-3.76Q454,101.58,454,94.69q0-8.94,6.94-12.94,3.81-2.18,11.2-3.11ZM484.26,84a14,14,0,0,1-2.46,1.22,20.74,20.74,0,0,1-3.4.87l-2.88.53a19,19,0,0,0-5.82,1.73,5.79,5.79,0,0,0-3,5.38q0,3.25,1.83,4.69A7,7,0,0,0,473,99.89a13.24,13.24,0,0,0,7.65-2.4q3.5-2.4,3.63-8.76Z" transform="translate(-25.88 -32.99)"/><path class="a" d="M503,68.59v-9h6.76V46h12.54V59.57h7.87v9h-7.87V94.2q0,3,.76,3.71t4.62.73l1.22,0,1.27-.07V108l-6,.22q-9,.31-12.27-3.11-2.13-2.18-2.13-6.71V68.59Z" transform="translate(-25.88 -32.99)"/><rect class="a" x="512.58" y="8.66" width="12.85" height="11.69"/><rect class="a" x="512.58" y="26.13" width="12.85" height="48.46"/><path class="a" d="M604,101.65q-6.14,7.57-18.63,7.57t-18.63-7.57a28.05,28.05,0,0,1-6.14-18.24,28.24,28.24,0,0,1,6.14-18.17q6.14-7.68,18.63-7.69T604,65.25a28.24,28.24,0,0,1,6.14,18.17A28.05,28.05,0,0,1,604,101.65Zm-10.14-7q3-4,3-11.23t-3-11.21a11.26,11.26,0,0,0-17.1,0q-3,3.93-3,11.21t3,11.23a11.22,11.22,0,0,0,17.1,0Z" transform="translate(-25.88 -32.99)"/><path class="a" d="M658.28,61.9q4.76,3.93,4.76,13v32.63h-13V78.11a13.54,13.54,0,0,0-1-5.87Q647.19,68.5,642,68.5q-6.4,0-8.78,5.47A18.92,18.92,0,0,0,632,81.35v26.23H619.29V59.21h12.27v7.07a21.48,21.48,0,0,1,4.6-5.38A16,16,0,0,1,646,58Q653.52,58,658.28,61.9Z" transform="translate(-25.88 -32.99)"/><path class="a" d="M88.76,156.79A28.67,28.67,0,0,1,90,163.43L85.88,165a49.61,49.61,0,0,1-4.44-7.9l5.36,2.2Z" transform="translate(-25.88 -32.99)"/><path class="a" d="M104.37,88.24a3.63,3.63,0,0,0-2.8-1.09l-12.65.7,7-7.93a4.25,4.25,0,0,0,.89-4,3.61,3.61,0,0,0-1.62-2.3L78.52,64a3.63,3.63,0,0,0-4.24.43l-8.11,7.24A3.63,3.63,0,1,0,71,77.06l6.15-5.49,5.09,3-9,10.22a18.5,18.5,0,0,0-9.7,4.8l4.69,4.69a11.92,11.92,0,0,1,16.84,16.84l4.69,4.69a18.55,18.55,0,0,0,3.15-20.87l4.9-.27-1.19,14.61a3.63,3.63,0,0,0,3.32,3.91h.3a3.63,3.63,0,0,0,3.61-3.33l1.53-18.76A3.63,3.63,0,0,0,104.37,88.24Z" transform="translate(-25.88 -32.99)"/><path class="a" d="M97.65,72.7a6.07,6.07,0,1,0-6.07-6.07A6.07,6.07,0,0,0,97.65,72.7Z" transform="translate(-25.88 -32.99)"/><path class="a" d="M76.26,115a11.92,11.92,0,0,1-9.87-18.62l-4.74-4.74a18.55,18.55,0,0,0,26,26l-4.74-4.74A11.86,11.86,0,0,1,76.26,115Z" transform="translate(-25.88 -32.99)"/><path class="a" d="M97.66,135.91a28.67,28.67,0,0,1,3.93,5.5l-3,3.16a28.7,28.7,0,0,1-5.63-3.73l2.87-4.3Z" transform="translate(-25.88 -32.99)"/><path class="a" d="M141,92.74V88.35a28.72,28.72,0,0,0-6.64-1.23l-.85-6.45a28.68,28.68,0,0,0,6.1-2.91l-1.13-4.24a28.62,28.62,0,0,0-6.73.54l-2.49-6a28.63,28.63,0,0,0,5.14-4.39l-2.19-3.8a28.69,28.69,0,0,0-6.37,2.26l-4-5.16a28.82,28.82,0,0,0,3.83-5.56l-3.1-3.1A28.65,28.65,0,0,0,117,52.12l-5.16-4a28.7,28.7,0,0,0,2.26-6.37l-3.8-2.19a28.71,28.71,0,0,0-4.38,5.14l-6-2.49a28.7,28.7,0,0,0,.54-6.73l-4.24-1.13a28.73,28.73,0,0,0-2.91,6.1l-6.45-.85A28.69,28.69,0,0,0,85.61,33H81.22A28.71,28.71,0,0,0,80,39.63l-6.45.85a28.72,28.72,0,0,0-2.9-6.1l-4.24,1.13a28.73,28.73,0,0,0,.54,6.73l-6,2.49a28.71,28.71,0,0,0-4.38-5.14l-3.8,2.19A28.67,28.67,0,0,0,55,48.16l-5.16,4a28.66,28.66,0,0,0-5.56-3.83l-3.1,3.1A28.71,28.71,0,0,0,45,57l-4,5.16a28.69,28.69,0,0,0-6.37-2.26l-2.19,3.8A28.73,28.73,0,0,0,37.64,68l-2.49,6a28.7,28.7,0,0,0-6.73-.54l-1.14,4.24a28.74,28.74,0,0,0,6.1,2.91l-.85,6.45a28.69,28.69,0,0,0-6.64,1.23v4.39A28.7,28.7,0,0,0,32.53,94l.85,6.45a28.64,28.64,0,0,0-6.1,2.9l1.14,4.24a28.65,28.65,0,0,0,6.73-.54l2.49,6a28.73,28.73,0,0,0-5.14,4.38l2.19,3.8a28.65,28.65,0,0,0,6.37-2.26l4,5.16a28.62,28.62,0,0,0-3.83,5.56l3.1,3.1a28.63,28.63,0,0,0,5.56-3.83l5.16,4a28.71,28.71,0,0,0-2.26,6.36l3.8,2.19a28.72,28.72,0,0,0,4.38-5.14l6,2.49a28.74,28.74,0,0,0-.54,6.73l4.24,1.14a28.75,28.75,0,0,0,2.9-6.1l6.45.85,5,2,1.89-2,6.45-.85,6.61-1.77,6-2.49a28.74,28.74,0,0,0,4.38,5.14l3.8-2.19a28.61,28.61,0,0,0-2.26-6.36l5.16-4c.82.82,1.91,1.09,3.6,1.86l3.1-3.1c-.78-1.69-1-2.78-1.86-3.6l4-5.16a28.61,28.61,0,0,0,6.37,2.26l2.19-3.8a28.68,28.68,0,0,0-5.14-4.38l2.49-6a28.66,28.66,0,0,0,6.73.54l1.13-4.24a28.59,28.59,0,0,0-6.1-2.9l.85-6.45A28.71,28.71,0,0,0,141,92.74ZM83.41,131.13a41.3,41.3,0,1,1,41.31-41.28A41.28,41.28,0,0,1,83.41,131.13Z" transform="translate(-25.88 -32.99)"/><path class="a" d="M175.88,148.4v-2.71a17.74,17.74,0,0,0-4.11-.76l-.53-4a17.75,17.75,0,0,0,3.77-1.8l-.7-2.62a17.75,17.75,0,0,0-4.17.33l-1.54-3.72a17.69,17.69,0,0,0,3.18-2.71l-1.36-2.35a17.73,17.73,0,0,0-3.94,1.4L164,126.28a17.85,17.85,0,0,0,2.37-3.44l-1.92-1.92a17.72,17.72,0,0,0-3.44,2.37l-3.19-2.45a17.73,17.73,0,0,0,1.4-3.94l-2.35-1.36a17.79,17.79,0,0,0-2.71,3.18l-3.72-1.54a17.79,17.79,0,0,0,.33-4.17l-2.62-.7a17.73,17.73,0,0,0-1.8,3.77l-4-.52a17.77,17.77,0,0,0-.76-4.11h-2.71a17.8,17.8,0,0,0-.76,4.11l-4,.53a17.81,17.81,0,0,0-1.8-3.77l-2.62.7a17.76,17.76,0,0,0,.33,4.17l-3.72,1.54a17.85,17.85,0,0,0-2.71-3.18l-2.35,1.36a17.67,17.67,0,0,0,1.4,3.94l-3.2,2.45a17.74,17.74,0,0,0-3.44-2.37l-1.92,1.92a17.76,17.76,0,0,0,2.37,3.44l-2.45,3.19a17.76,17.76,0,0,0-3.94-1.4l-1.36,2.35a17.77,17.77,0,0,0,3.18,2.71l-1.54,3.72a17.77,17.77,0,0,0-4.17-.33l-.7,2.62a17.81,17.81,0,0,0,3.77,1.8l-.52,4v4.23l.52,4a17.81,17.81,0,0,0-3.77,1.8l.7,2.62a17.77,17.77,0,0,0,4.17-.33L112,161a17.74,17.74,0,0,0-3.18,2.71l1.36,2.35a17.67,17.67,0,0,0,3.94-1.4l2.45,3.19a17.77,17.77,0,0,0-2.37,3.44l1.92,1.92a17.66,17.66,0,0,0,3.44-2.37l3.19,2.45a17.76,17.76,0,0,0-1.4,3.94l2.35,1.36a17.84,17.84,0,0,0,2.71-3.18l3.72,1.54a17.76,17.76,0,0,0-.33,4.17l2.62.7a17.88,17.88,0,0,0,1.8-3.77l4,.53a17.76,17.76,0,0,0,.76,4.11h2.71a17.73,17.73,0,0,0,.76-4.11l4-.53a17.76,17.76,0,0,0,1.8,3.77l2.62-.7a17.76,17.76,0,0,0-.33-4.17l3.72-1.54a17.76,17.76,0,0,0,2.71,3.18l2.35-1.36a17.72,17.72,0,0,0-1.4-3.94l3.19-2.45a17.74,17.74,0,0,0,3.44,2.37l1.92-1.92a17.82,17.82,0,0,0-2.37-3.44l2.45-3.19a17.67,17.67,0,0,0,3.94,1.4l1.36-2.35a17.72,17.72,0,0,0-3.18-2.71l1.54-3.72a17.78,17.78,0,0,0,4.17.33l.7-2.62a17.75,17.75,0,0,0-3.77-1.8l.53-4A17.73,17.73,0,0,0,175.88,148.4Zm-35.6,23.08A24.43,24.43,0,1,1,164.72,147,24.43,24.43,0,0,1,140.29,171.48Z" transform="translate(-25.88 -32.99)"/><path class="a" d="M140.29,127.18A19.86,19.86,0,1,0,160.15,147,19.88,19.88,0,0,0,140.29,127.18Zm0,34A14.18,14.18,0,1,1,154.47,147,14.2,14.2,0,0,1,140.29,161.23Z" transform="translate(-25.88 -32.99)"/><path class="a" d="M108.78,149.56a17.74,17.74,0,0,1-3.23-2.66l1.32-2.37a17.72,17.72,0,0,1,4,1.33" transform="translate(-25.88 -32.99)"/><path class="a" d="M669.86,183.48a18.31,18.31,0,0,0-.74-3.74h-2.71a18.28,18.28,0,0,0-.74,3.74h-4.82a18.31,18.31,0,0,0-.74-3.74h-2.71a18.28,18.28,0,0,0-.74,3.74h-4.82a18.31,18.31,0,0,0-.74-3.74h-2.73a18.3,18.3,0,0,0-.74,3.74H642.8a18.32,18.32,0,0,0-.74-3.74h-2.71a18.3,18.3,0,0,0-.74,3.74h-4.82a18.32,18.32,0,0,0-.74-3.74h-2.71a18.3,18.3,0,0,0-.74,3.74h-4.82a18.32,18.32,0,0,0-.74-3.74h-2.71a18.3,18.3,0,0,0-.74,3.74h-4.82a18.32,18.32,0,0,0-.74-3.74H612.3a18.29,18.29,0,0,0-.74,3.74h-4.82a18.32,18.32,0,0,0-.74-3.74h-2.71a18.29,18.29,0,0,0-.74,3.74h-4.82a18.32,18.32,0,0,0-.74-3.74h-2.71a18.29,18.29,0,0,0-.74,3.74h-4.82a18.32,18.32,0,0,0-.74-3.74h-2.71a18.29,18.29,0,0,0-.74,3.74H579.7a18.31,18.31,0,0,0-.74-3.74h-2.71a18.29,18.29,0,0,0-.74,3.74h-4.82a18.31,18.31,0,0,0-.74-3.74h-2.71a18.28,18.28,0,0,0-.74,3.74h-4.82a18.31,18.31,0,0,0-.74-3.74h-2.71a18.28,18.28,0,0,0-.74,3.74h-4.82a18.31,18.31,0,0,0-.74-3.74H549.2a18.29,18.29,0,0,0-.74,3.74h-4.82a18.31,18.31,0,0,0-.74-3.74h-2.71a18.29,18.29,0,0,0-.74,3.74h-4.82a18.32,18.32,0,0,0-.74-3.74h-2.71a18.29,18.29,0,0,0-.74,3.74h-4.82a18.32,18.32,0,0,0-.74-3.74h-2.71a18.29,18.29,0,0,0-.74,3.74h-4.82a18.32,18.32,0,0,0-.74-3.74h-2.71a18.3,18.3,0,0,0-.74,3.74h-4.82a18.32,18.32,0,0,0-.74-3.74h-2.71a18.3,18.3,0,0,0-.74,3.74h-4.82a18.32,18.32,0,0,0-.74-3.74h-2.71a18.3,18.3,0,0,0-.74,3.74h-4.82a18.32,18.32,0,0,0-.74-3.74H486.1a18.29,18.29,0,0,0-.74,3.74h-4.82a18.32,18.32,0,0,0-.74-3.74h-2.71a18.29,18.29,0,0,0-.74,3.74h-4.82a18.31,18.31,0,0,0-.74-3.74h-2.71a18.29,18.29,0,0,0-.74,3.74H462.5a18.32,18.32,0,0,0-.74-3.74h-2.71a18.29,18.29,0,0,0-.74,3.74h-4.82a18.32,18.32,0,0,0-.74-3.74H450a18.29,18.29,0,0,0-.74,3.74h-4.82a18.31,18.31,0,0,0-.74-3.74H441a18.28,18.28,0,0,0-.74,3.74h-4.82a18.31,18.31,0,0,0-.74-3.74H432a18.28,18.28,0,0,0-.74,3.74h-4.82a18.31,18.31,0,0,0-.74-3.74H423a18.28,18.28,0,0,0-.74,3.74h-4.74a18.32,18.32,0,0,0-.74-3.74H414a18.29,18.29,0,0,0-.74,3.74h-4.74a18.32,18.32,0,0,0-.74-3.74H405a18.3,18.3,0,0,0-.74,3.74h-4.82a18.32,18.32,0,0,0-.74-3.74H396a18.3,18.3,0,0,0-.74,3.74h-4.82a18.32,18.32,0,0,0-.74-3.74H387a18.29,18.29,0,0,0-.74,3.74h-4.82a18.32,18.32,0,0,0-.74-3.74H378a18.29,18.29,0,0,0-.74,3.74h-4.82a18.32,18.32,0,0,0-.74-3.74H369a18.29,18.29,0,0,0-.74,3.74h-4.82a18.32,18.32,0,0,0-.74-3.74H360a18.29,18.29,0,0,0-.74,3.74H354.4a18.32,18.32,0,0,0-.74-3.74H351a18.29,18.29,0,0,0-.74,3.74h-4.82a18.31,18.31,0,0,0-.74-3.74h-2.71a18.28,18.28,0,0,0-.74,3.74h-4.82a18.31,18.31,0,0,0-.74-3.74h-2.71a18.28,18.28,0,0,0-.74,3.74h-4.82a18.31,18.31,0,0,0-.74-3.74h-2.71a18.29,18.29,0,0,0-.74,3.74h-4.82a18.31,18.31,0,0,0-.74-3.74h-2.71a18.29,18.29,0,0,0-.74,3.74h-4.82a18.32,18.32,0,0,0-.74-3.74h-2.71a18.29,18.29,0,0,0-.74,3.74h-4.82a18.32,18.32,0,0,0-.74-3.74h-2.71a18.29,18.29,0,0,0-.74,3.74H291.3a18.32,18.32,0,0,0-.74-3.74h-2.71a18.3,18.3,0,0,0-.74,3.74h-4.82a18.32,18.32,0,0,0-.74-3.74h-2.71a18.3,18.3,0,0,0-.74,3.74h-4.82a18.32,18.32,0,0,0-.74-3.74h-2.71a18.3,18.3,0,0,0-.74,3.74h-4.82a18.32,18.32,0,0,0-.74-3.74H260.8a18.29,18.29,0,0,0-.74,3.74h-4.82a18.32,18.32,0,0,0-.74-3.74h-2.71a18.29,18.29,0,0,0-.74,3.74h-4.82a18.31,18.31,0,0,0-.74-3.74h-2.71a18.29,18.29,0,0,0-.74,3.74h-4.82a18.32,18.32,0,0,0-.74-3.74h-2.71a18.29,18.29,0,0,0-.74,3.74H228.2a18.32,18.32,0,0,0-.74-3.74h-2.71a18.29,18.29,0,0,0-.74,3.74h-4.82a18.31,18.31,0,0,0-.74-3.74h-2.71a18.28,18.28,0,0,0-.74,3.74h-4.82a18.31,18.31,0,0,0-.74-3.74h-2.71a18.28,18.28,0,0,0-.74,3.74h-4.82a18.31,18.31,0,0,0-.74-3.74H197.7a18.28,18.28,0,0,0-.74,3.74h-4.82a18.31,18.31,0,0,0-.74-3.74h-2.71a18.29,18.29,0,0,0-.74,3.74h-4.82a18.31,18.31,0,0,0-.74-3.74h-2.71a18.29,18.29,0,0,0-.74,3.74h-4.82a18.32,18.32,0,0,0-.74-3.74h-2.71a18.29,18.29,0,0,0-.74,3.74h-4.82a18.32,18.32,0,0,0-.74-3.74h-2.71a18.3,18.3,0,0,0-.74,3.74h-4.82a18.32,18.32,0,0,0-.74-3.74h-2.71a18.3,18.3,0,0,0-.74,3.74h-4.82a18.32,18.32,0,0,0-.74-3.74h-2.71a18.3,18.3,0,0,0-.74,3.74H138a18.32,18.32,0,0,0-.74-3.74H134.6a18.3,18.3,0,0,0-.74,3.74h-1.05v4.25H672.34v-4.25Z" transform="translate(-25.88 -32.99)"/><path class="a" d="M214.7,120h3.4v24.87h-3.4Z" transform="translate(-25.88 -32.99)"/><path class="a" d="M257.59,120h4L274,140.14V120h3.22v24.87h-3.78l-12.59-20.07v20.07h-3.22Z" transform="translate(-25.88 -32.99)"/><path class="a" d="M319.14,136.89a7,7,0,0,0,1,3.44q1.62,2.47,5.69,2.47a9.78,9.78,0,0,0,3.33-.54,3.81,3.81,0,0,0,2.9-3.76,3.28,3.28,0,0,0-1.23-2.89,12.15,12.15,0,0,0-3.9-1.48l-3.26-.76a14.52,14.52,0,0,1-4.53-1.64,5.25,5.25,0,0,1-2.3-4.66,7.27,7.27,0,0,1,2.26-5.5,8.91,8.91,0,0,1,6.39-2.15,10.89,10.89,0,0,1,6.47,1.89q2.66,1.89,2.66,6h-3.17a6.4,6.4,0,0,0-1-3.06q-1.48-1.95-5-1.95a5.64,5.64,0,0,0-4.11,1.25A4,4,0,0,0,320,126.5a2.86,2.86,0,0,0,1.48,2.68,21.12,21.12,0,0,0,4.38,1.35l3.38.8A10.16,10.16,0,0,1,333,132.9a6,6,0,0,1,2.3,5.06q0,4.13-2.93,5.91a12.88,12.88,0,0,1-6.81,1.78,10,10,0,0,1-7.08-2.37,8.1,8.1,0,0,1-2.51-6.38Z" transform="translate(-25.88 -32.99)"/><path class="a" d="M392.46,120v3h-8.38v21.91h-3.4V123h-8.38v-3Z" transform="translate(-25.88 -32.99)"/><path class="a" d="M430.63,120H434v24.87h-3.4Z" transform="translate(-25.88 -32.99)"/><path class="a" d="M491.89,120v3h-8.38v21.91h-3.4V123h-8.38v-3Z" transform="translate(-25.88 -32.99)"/><path class="a" d="M532.94,120v15.37a9,9,0,0,0,1,4.5,5.39,5.39,0,0,0,5.12,2.71q4.32,0,5.87-2.93a9.25,9.25,0,0,0,.84-4.28V120h3.4v14a16.09,16.09,0,0,1-1.24,7.06q-2.28,4.5-8.6,4.5t-8.58-4.5a16.09,16.09,0,0,1-1.24-7.06V120Z" transform="translate(-25.88 -32.99)"/><path class="a" d="M606.73,120v3h-8.38v21.91h-3.4V123h-8.38v-3Z" transform="translate(-25.88 -32.99)"/><path class="a" d="M644.74,120h18v3H648v7.55h13.65v2.88H648V142h15v3h-18.3Z" transform="translate(-25.88 -32.99)"/></svg>